<svg xmlns="http://www.w3.org/2000/svg" viewBox="0 0 64 64">
  <circle cx="32" cy="32" r="30" fill="rgba(139, 92, 246, 0.1)"/>
  <!-- Brain icon -->
  <path d="M32 12 C20 12 14 18 14 26 C14 32 18 36 22 38 C20 40 18 42 18 44 C18 48 22 50 26 50 C28 50 30 49 32 48 C34 49 36 50 38 50 C42 50 46 48 46 44 C46 42 44 40 42 38 C46 36 50 32 50 26 C50 18 44 12 32 12" 
        fill="none" stroke="#8B5CF6" stroke-width="2.5" stroke-linecap="round" stroke-linejoin="round"/>
  <!-- Neural connections -->
  <circle cx="32" cy="22" r="3" fill="#8B5CF6"/>
  <circle cx="24" cy="30" r="2.5" fill="#8B5CF6"/>
  <circle cx="40" cy="30" r="2.5" fill="#8B5CF6"/>
  <circle cx="26" cy="40" r="2.5" fill="#8B5CF6"/>
  <circle cx="38" cy="40" r="2.5" fill="#8B5CF6"/>
  <!-- Connection lines -->
  <line x1="32" y1="22" x2="24" y2="30" stroke="#8B5CF6" stroke-width="1" opacity="0.5"/>
  <line x1="32" y1="22" x2="40" y2="30" stroke="#8B5CF6" stroke-width="1" opacity="0.5"/>
  <line x1="24" y1="30" x2="26" y2="40" stroke="#8B5CF6" stroke-width="1" opacity="0.5"/>
  <line x1="40" y1="30" x2="38" y2="40" stroke="#8B5CF6" stroke-width="1" opacity="0.5"/>
  <line x1="26" y1="40" x2="32" y2="48" stroke="#8B5CF6" stroke-width="1" opacity="0.5"/>
  <line x1="38" y1="40" x2="32" y2="48" stroke="#8B5CF6" stroke-width="1" opacity="0.5"/>
</svg>